<svg xmlns="http://www.w3.org/2000/svg" viewBox="0 0 30.03 8.43"><defs><style>.cls-1{fill:none;stroke:#1a5f9b;stroke-miterlimit:10;stroke-width:0.2px;}</style></defs><g id="Layer_2" data-name="Layer 2"><g id="Layer_1-2" data-name="Layer 1"><path class="cls-1" d="M5.11,4.1a2.5,2.5,0,0,1-.7,1.78,2.43,2.43,0,0,1-2.18.74,2.31,2.31,0,0,1-1.68-1A2.55,2.55,0,0,1,.1,4a2.5,2.5,0,0,1,5-.36C5.09,3.79,5.1,3.94,5.11,4.1Z"/><path class="cls-1" d="M16.17,6.6h-.79s-.07,0-.08-.09c-.13-.27-.26-.54-.38-.81s-.11-.22-.34-.22H13.29l.27-.6a.22.22,0,0,1,.13,0h.64c.21,0,.26-.08.18-.27l-.72-1.61c0-.08-.07-.16-.18-.16s-.15.09-.18.17C13,4,12.5,5.11,12,6.19l-.15.34a.11.11,0,0,1-.08.07c-.22,0-.43,0-.65,0l-.05,0c.07-.17.14-.34.22-.5.58-1.38,1.17-2.76,1.76-4.14.05-.11.1-.22.14-.33s.06-.08.13-.08.35,0,.52,0a.13.13,0,0,1,.15.09l.81,1.9,1.27,2.92Z"/><path class="cls-1" d="M2.57,2.36A1.72,1.72,0,0,1,4.2,3.64a1.72,1.72,0,0,1-.43,1.7,1.64,1.64,0,0,1-2.26.09A1.82,1.82,0,0,1,1.6,2.71,1.58,1.58,0,0,1,2.57,2.36Z"/><path class="cls-1" d="M25.85,4.44h.31a.21.21,0,0,1,.22.15,1.38,1.38,0,0,0,.73.84,1.14,1.14,0,0,0,1.29-.19,1.49,1.49,0,0,0,.11-2.16,1.21,1.21,0,0,0-1.89.11,2.64,2.64,0,0,0-.25.47.19.19,0,0,1-.2.15h-.64c-.16,0-.23-.08-.2-.23a2.37,2.37,0,0,1,1-1.62,2.2,2.2,0,0,1,2.9.41,2.66,2.66,0,0,1,.66,1.82,2.44,2.44,0,0,1-1.26,2.15,2.09,2.09,0,0,1-1.07.28,2.31,2.31,0,0,1-2.12-1.47,4.42,4.42,0,0,1-.15-.48c0-.15,0-.21.17-.22Z"/><path class="cls-1" d="M20.2,2.61H16.39c-.21,0-.24,0-.25-.24s0-.39,0-.59.05-.18.18-.2h4.28a.34.34,0,0,1,.4.23c.14.27.31.52.46.78s.09.21,0,.33L20,4.38c-.4.4-.79.81-1.19,1.22l0,.05a.75.75,0,0,0,.2,0,.25.25,0,0,1,.26.16c.1.16.2.32.29.49s0,.29-.16.29h-2.7c-.06,0-.13-.06-.14-.11a.2.2,0,0,1,0-.16l.85-.89,1.76-1.8.9-.93Z"/><path class="cls-1" d="M22.81,2.59h-.34a.26.26,0,0,1-.27-.15l-.32-.55c-.11-.19-.05-.3.18-.3H25c.09,0,.17,0,.21.1a.22.22,0,0,1-.06.23c-.32.32-.64.63-.95,1L21.84,5.22l-.23.23h3.2a.2.2,0,0,1,.22.23v.67c0,.18-.06.24-.25.24H20.84a.28.28,0,0,1-.27-.15l-.49-.77c-.1-.17-.09-.22.05-.36l2.59-2.64Z"/><path class="cls-1" d="M10.68,6.67,11,7l.34.29a.37.37,0,0,0,.26.1H29.4c.22,0,.27,0,.27.27v.51c0,.15-.06.21-.21.21H11a.55.55,0,0,1-.37-.14L7.88,5.71,7,4.91s0,0-.07,0v3.3c0,.11-.06.16-.17.16H.31a.17.17,0,0,1-.18-.18c0-.22,0-.44,0-.66s.06-.15.19-.15H5.88V1H.29A.13.13,0,0,1,.14.89c0-.2,0-.41,0-.62S.19.1.32.1H6.71c.17,0,.22,0,.22.21v3l.45-.42L10.21.2a.33.33,0,0,1,.23-.09h19c.22,0,.27.05.26.26V.87a.18.18,0,0,1-.17.2H11.19a.39.39,0,0,0-.27.13C10,2.07,9.13,2.93,8.23,3.79l-.4.38L10.3,6.35S10.66,6.67,10.68,6.67Z"/></g></g></svg>