<svg xmlns="http://www.w3.org/2000/svg" viewBox="0 0 1344.23 372.68"><defs><style>.cls-1,.cls-2,.cls-3,.cls-4{fill:none;stroke-miterlimit:10;}.cls-1,.cls-2,.cls-3{stroke:#2758a1;}.cls-1{stroke-width:6.95px;}.cls-2,.cls-4{stroke-width:7px;}.cls-3{stroke-width:7.56px;}.cls-4{stroke:#2459a6;}</style></defs><g id="Layer_2" data-name="Layer 2"><g id="Layer_8" data-name="Layer 8"><path class="cls-1" d="M1336.4,184.46c0,64.57-47.31,116.91-105.66,116.91-47,0-86.75-33.88-100.51-80.75-1.12-3.79,1.44-7.7,5-7.7h32.91c10.23,27.54,34.42,46.89,62.63,46.89,38,0,68.76-35.2,67.83-78.2-.89-40.72-30.61-73.79-66.83-74.38-29.79-.49-55.26,20.62-64.82,50.3h-32.32c-3.44,0-5.93-3.75-4.9-7.45,13.26-47.8,53.47-82.55,101-82.55C1289.09,67.53,1336.4,119.88,1336.4,184.46Z"/></g><g id="Layer_11" data-name="Layer 11"><path class="cls-2" d="M727.74,73.89H927.38a2.57,2.57,0,0,1,2.15,1.16l28.63,43.79a2.56,2.56,0,0,1-.24,3.12L835.4,257.82a2.56,2.56,0,0,0,1.9,4.28h11.63a2.57,2.57,0,0,1,2.17,1.21l16.49,26.23a2.56,2.56,0,0,1-2.17,3.93H749.16a2.57,2.57,0,0,1-1.87-4.32L899.38,126.48a7.29,7.29,0,0,0-5.32-12.26H727.74a2.57,2.57,0,0,1-2.57-2.57V76.46A2.57,2.57,0,0,1,727.74,73.89Z"/></g><g id="zZ"><path class="cls-2" d="M953.51,240.69,1105.05,76.46a1.45,1.45,0,0,0-1-2.44H970.9a1.45,1.45,0,0,0-1.21,2.19l14.07,24.19a5,5,0,0,0,4,2.47l24.2,1.49a1.45,1.45,0,0,1,1,2.42L888.67,247.47a7.84,7.84,0,0,0-.94,9.07l21.68,38.14a7.78,7.78,0,0,0,6.88,3.94l181.87-2.36a1.44,1.44,0,0,0,1.4-1.45V249.53a1.44,1.44,0,0,0-1.45-1.45l-140,3.25C952.66,251.46,949.75,244.76,953.51,240.69Z"/></g><g id="A"><path class="cls-3" d="M487.8,288.35,580,75.51a3.76,3.76,0,0,1,3.45-2.26h32.67a3.75,3.75,0,0,1,3.47,2.3L709.68,290.3a3.76,3.76,0,0,1-3.47,5.22H668.62a3.77,3.77,0,0,1-3.45-2.26l-19.53-44.74a3.75,3.75,0,0,0-3.49-2.26l-56.21.78a3.76,3.76,0,0,1-3.5-5.26l11.93-27.35a3.74,3.74,0,0,1,3.44-2.26h32a3.76,3.76,0,0,0,3.42-5.32L603.33,141a3.77,3.77,0,0,0-6.88.05L530,293.26a3.77,3.77,0,0,1-3.45,2.26H491.44a3.76,3.76,0,0,1-3.31-2A5.84,5.84,0,0,1,487.8,288.35Z"/></g><g id="ok"><path class="cls-4" d="M8.35,3.5H299.8a4.85,4.85,0,0,1,4.85,4.85V141.84a4.84,4.84,0,0,0,8.12,3.57l153-140.63a4.85,4.85,0,0,1,3.29-1.27l866.83,2.37a4.84,4.84,0,0,1,4.84,4.84v22.6a4.84,4.84,0,0,1-4.84,4.84L497.78,39.35a4.82,4.82,0,0,0-3.33,1.34L347.86,180.35a4.84,4.84,0,0,0,.1,7.1L509.3,333.27a4.87,4.87,0,0,0,3.25,1.25h823.33a4.85,4.85,0,0,1,4.85,4.85v25a4.85,4.85,0,0,1-4.85,4.85H487.44a4.88,4.88,0,0,1-3.21-1.22L311.51,215a4.85,4.85,0,0,0-8.06,3.63V364.33a4.85,4.85,0,0,1-4.85,4.85H8.35a4.85,4.85,0,0,1-4.85-4.85V340.52a4.85,4.85,0,0,1,4.8-4.85l254.5-2.3a4.84,4.84,0,0,0,4.8-4.85V41.81A4.85,4.85,0,0,0,262.75,37H8.35A4.85,4.85,0,0,1,3.5,32.11V8.35A4.85,4.85,0,0,1,8.35,3.5Z"/><path class="cls-2" d="M242,146.15C226.25,93,171.84,53.33,109,62.6c-34.48,5.09-61.51,22.48-81.1,51.16C10,139.94,4.83,169.09,8.12,200.33,11.55,232.82,25.9,259.2,50.73,280c22.05,18.49,48,25.73,76.35,25.37,18.78.43,36.89-3,53.6-11.51C236.13,265.49,259.46,205.1,242,146.15Z"/><path class="cls-2" d="M179.09,119.19c-30-25.49-72.37-29.18-104.89.57C49.92,142,42.71,169.82,48.36,201.48c7.76,43.59,47.74,72.14,91.47,65.61,38.54-5.76,68.67-41.94,68.4-82.16C208,157.3,199.1,136.18,179.09,119.19Z"/></g></g></svg>