<?xml version="1.0" encoding="utf-8"?>
<!-- Generator: Adobe Illustrator 24.3.0, SVG Export Plug-In . SVG Version: 6.00 Build 0)  -->
<svg version="1.1" id="logo-full-white" xmlns="http://www.w3.org/2000/svg" xmlns:xlink="http://www.w3.org/1999/xlink" x="0px"
	 y="0px" viewBox="0 0 1400 400" style="enable-background:new 0 0 1400 400;" xml:space="preserve">
<style type="text/css">
	.st0{fill:#FFFFFF;stroke:#FFFFFF;stroke-miterlimit:10;}
	.st1{fill:none;stroke:#FFFFFF;stroke-width:6.9545;stroke-miterlimit:10;}
	.st2{fill:none;stroke:#FFFFFF;stroke-width:7;stroke-miterlimit:10;}
	.st3{fill:none;stroke:#FFFFFF;stroke-width:7.5564;stroke-miterlimit:10;}
</style>
<path class="st0" d="M1372.2-24.1"/>
<path class="st1" d="M1265.9,200.4c0,55.6-40.8,100.7-91.1,100.7c-40.5,0-74.8-29.2-86.6-69.6c-1-3.3,1.2-6.6,4.3-6.6h28.4
	c8.8,23.7,29.7,40.4,54,40.4c32.8,0,59.3-30.3,58.4-67.4c-0.8-35.1-26.4-63.6-57.6-64.1c-25.7-0.4-47.6,17.8-55.9,43.3H1092
	c-3,0-5.1-3.2-4.2-6.4c11.4-41.2,46.1-71.1,87.1-71.1C1225.1,99.7,1265.9,144.8,1265.9,200.4z"/>
<path class="st2" d="M741.4,105.2h172c0.7,0,1.4,0.4,1.9,1l24.7,37.7c0.6,0.8,0.5,1.9-0.2,2.7L834.2,263.7c-1.3,1.4-0.3,3.7,1.6,3.7
	h10c0.8,0,1.5,0.4,1.9,1l14.2,22.6c0.9,1.5-0.1,3.4-1.9,3.4H759.9c-1.9,0-2.9-2.3-1.6-3.7l131.1-140.2c3.8-4,0.9-10.6-4.6-10.6
	H741.4c-1.2,0-2.2-1-2.2-2.2v-30.3C739.2,106.2,740.2,105.2,741.4,105.2z"/>
<path class="st2" d="M935.9,248.9l130.6-141.5c0.7-0.8,0.2-2.1-0.9-2.1H950.9c-0.9,0-1.5,1.1-1,1.9L962,128c0.7,1.2,2,2,3.5,2.1
	l20.8,1.3c1,0.1,1.5,1.3,0.8,2.1l-107,121.2c-1.9,2.2-2.2,5.3-0.8,7.8l18.7,32.9c1.2,2.1,3.5,3.4,5.9,3.4l156.7-2
	c0.7,0,1.2-0.6,1.2-1.2v-39c0-0.7-0.6-1.3-1.2-1.2L940,258.2C935.2,258.2,932.7,252.4,935.9,248.9z"/>
<path class="st3" d="M534.6,290l79.5-183.4c0.5-1.2,1.7-2,3-2h28.2c1.3,0,2.5,0.8,3,2l77.6,185.1c0.9,2.1-0.7,4.5-3,4.5h-32.4
	c-1.3,0-2.5-0.8-3-1.9l-16.8-38.6c-0.5-1.2-1.7-2-3-1.9l-48.4,0.7c-2.4,0-4-2.4-3-4.5l10.3-23.6c0.5-1.2,1.7-1.9,3-1.9H657
	c2.4,0,3.9-2.4,3-4.6L634.2,163c-1.2-2.6-4.8-2.5-5.9,0L571,294.2c-0.5,1.2-1.7,1.9-3,1.9h-30.3c-1.2,0-2.3-0.6-2.9-1.7
	C534.3,293.3,533.9,291.7,534.6,290z"/>
<path class="st2" d="M121.5,44.5h251.1c2.3,0,4.2,1.9,4.2,4.2v115c0,3.6,4.3,5.5,7,3.1L515.7,45.6c0.8-0.7,1.8-1.1,2.8-1.1l747,2
	c2.3,0,4.2,1.9,4.2,4.2v19.5c0,2.3-1.9,4.2-4.2,4.2l-722.2,1c-1.1,0-2.1,0.4-2.9,1.2L414.1,196.9c-1.8,1.7-1.7,4.5,0.1,6.1
	l139,125.7c0.8,0.7,1.8,1.1,2.8,1.1h709.5c2.3,0,4.2,1.9,4.2,4.2v21.5c0,2.3-1.9,4.2-4.2,4.2H534.3c-1,0-2-0.4-2.8-1L382.7,226.8
	c-2.7-2.4-6.9-0.5-6.9,3.1v125.6c0,2.3-1.9,4.2-4.2,4.2H121.5c-2.3,0-4.2-1.9-4.2-4.2V335c0-2.3,1.8-4.2,4.1-4.2l219.3-2
	c2.3,0,4.1-1.9,4.1-4.2V77.5c0-2.3-1.9-4.2-4.2-4.2H121.5c-2.3,0-4.2-1.9-4.2-4.2V48.7C117.3,46.4,119.2,44.5,121.5,44.5z"/>
<g>
	<g>
		<path class="st2" d="M322.8,167.4c-13.6-45.8-60.4-80-114.6-72c-29.7,4.4-53,19.4-69.9,44.1c-15.4,22.6-19.9,47.7-17,74.6
			c3,28,15.3,50.7,36.7,68.7c19,15.9,41.3,22.2,65.8,21.9c16.2,0.4,31.8-2.6,46.2-9.9C317.8,270.3,337.9,218.2,322.8,167.4z"/>
		<path class="st2" d="M268.6,144.2c-25.9-22-62.4-25.1-90.4,0.5c-20.9,19.1-27.1,43.1-22.3,70.4c6.7,37.6,41.1,62.2,78.8,56.5
			c33.2-5,59.2-36.1,58.9-70.8C293.6,177,285.9,158.8,268.6,144.2z"/>
	</g>
</g>
</svg>
