<svg xmlns="http://www.w3.org/2000/svg" viewBox="0 0 156.91 100.19"><defs><style>.cls-1{fill:none;stroke:#fff;stroke-miterlimit:10;stroke-width:3px;}</style></defs><g id="Layer_2" data-name="Layer 2"><g id="ok"><path class="cls-1" d="M155.41,89.48H136.79a1.24,1.24,0,0,1-.86-.34L93.05,50.39a1.29,1.29,0,0,1,0-1.89l39-37.12a1.33,1.33,0,0,1,.89-.35l22.54,0V1.58L125.23,1.5a1.29,1.29,0,0,0-.87.34L83.7,39.21a1.29,1.29,0,0,1-2.16-.94V2.79A1.29,1.29,0,0,0,80.25,1.5H2.79A1.29,1.29,0,0,0,1.5,2.79V9.1a1.29,1.29,0,0,0,1.29,1.29H70.4a1.29,1.29,0,0,1,1.29,1.29v76.2a1.29,1.29,0,0,1-1.28,1.29l-67.63.61A1.29,1.29,0,0,0,1.5,91.07V97.4a1.29,1.29,0,0,0,1.29,1.29H79.93a1.29,1.29,0,0,0,1.29-1.29V58.67a1.28,1.28,0,0,1,2.14-1l45.9,40.65a1.3,1.3,0,0,0,.86.33h25.29Z"/><path class="cls-1" d="M64.88,39.41a31.9,31.9,0,0,0-35.34-22.2A30.59,30.59,0,0,0,8,30.8c-4.75,7-6.13,14.71-5.25,23A30.86,30.86,0,0,0,14.05,75c5.86,4.92,12.75,6.84,20.29,6.75a29.45,29.45,0,0,0,14.25-3.06C63.33,71.13,69.53,55.08,64.88,39.41Z"/><path class="cls-1" d="M48.17,32.25c-8-6.78-19.24-7.76-27.88.15-6.45,5.9-8.37,13.3-6.87,21.72A21.27,21.27,0,0,0,37.73,71.55C48,70,56,60.41,55.91,49.72,55.86,42.38,53.48,36.76,48.17,32.25Z"/></g></g></svg>